C:\Users\Nicos\Documents\OpenSimProjects\SprintingProject\Study1\PredictiveResults\IC_pred_Sprinting_optimum_27-October-2023__11-17-52_p02_maxVel_01___IKTD_Plus_2_GRF.mot
version=1
nRows=69
nColumns=10
inDegrees=yes
endheader
time	ground_force_vx	ground_force_vy	ground_force_vz	ground_force_px	ground_force_py	ground_force_pz	ground_torque_x	ground_torque_y	ground_torque_z
0.056000	-83.483000	40.000000	16.744097	0.357384	0.000000	0.426935	-17.077395	-41.623847	14.295345
0.056646	-113.065446	54.720293	20.565767	0.359603	0.000000	0.426553	-23.341110	-55.619309	19.677557
0.058689	-220.080945	111.287127	22.560345	0.365627	0.000000	0.425674	-47.372089	-101.890371	40.689524
0.060169	-309.238338	163.198566	12.407856	0.368650	0.000000	0.425449	-69.432682	-136.001631	60.163135
0.060815	-357.572752	192.854766	6.208467	0.369100	0.000000	0.425848	-82.126876	-154.342645	71.182600
0.062858	-564.716513	333.409629	-22.953867	0.366694	0.000000	0.427078	-142.391942	-231.905597	122.259301
0.064338	-757.292507	498.585977	-50.577340	0.363642	0.000000	0.427765	-213.277688	-303.748060	181.306778
0.064984	-848.030497	591.375014	-67.075185	0.362012	0.000000	0.428055	-253.141113	-336.270552	214.084840
0.067026	-1088.659054	962.163537	-129.087931	0.357117	0.000000	0.428772	-412.548728	-414.720001	343.604921
0.068507	-1172.489554	1299.203032	-162.782462	0.352316	0.000000	0.429061	-557.437687	-433.849418	457.729425
0.069153	-1185.974348	1477.176037	-165.844176	0.348630	0.000000	0.429141	-633.916139	-434.224602	514.988530
0.071195	-1072.782615	2055.140410	-135.912922	0.337856	0.000000	0.429259	-882.188461	-376.602496	694.340841
0.072675	-865.293605	2439.834035	-77.099376	0.331715	0.000000	0.429251	-1047.300376	-292.259389	809.330006
0.073322	-755.021584	2588.422079	-50.300119	0.329260	0.000000	0.429204	-1110.960835	-248.091068	852.264463
0.075364	-373.181417	3017.378398	32.310069	0.323465	0.000000	0.429038	-1294.568597	-101.981664	976.017005
0.076844	-225.560378	3292.752337	54.096137	0.320510	0.000000	0.428805	-1411.950099	-45.160434	1055.361306
0.077491	-199.800046	3404.539694	38.176364	0.319517	0.000000	0.428635	-1459.305421	-29.064501	1087.806645
0.079533	-83.546424	3713.299416	-4.110251	0.317937	0.000000	0.428270	-1590.293396	28.067737	1180.593830
0.081013	33.410502	3889.479222	-164.903863	0.318039	0.000000	0.427552	-1662.952707	102.186171	1237.007401
0.081660	59.622206	3954.127382	-134.287948	0.318275	0.000000	0.427688	-1691.131555	108.392572	1258.500565
0.083702	166.348556	4094.562223	-144.728976	0.319848	0.000000	0.427744	-1751.424099	157.422307	1309.637284
0.085182	241.168138	4135.122654	-152.952178	0.321515	0.000000	0.427835	-1769.151272	191.838783	1329.502895
0.085828	273.458462	4135.638213	-153.339262	0.322338	0.000000	0.427894	-1769.613639	205.678570	1333.072574
0.087871	344.881500	4091.992497	-152.272241	0.325699	0.000000	0.428142	-1751.954785	235.443398	1332.755883
0.089351	387.624761	4013.842334	-147.019166	0.328803	0.000000	0.428390	-1719.489316	252.010515	1319.764262
0.089997	412.197481	3965.943598	-142.278717	0.330318	0.000000	0.428520	-1699.485033	260.894157	1310.024256
0.092040	484.013656	3771.359494	-125.437281	0.335786	0.000000	0.428868	-1617.414694	284.212194	1266.369120
0.093520	511.578420	3594.233410	-115.464325	0.340335	0.000000	0.429225	-1542.733129	291.588051	1223.245117
0.094166	529.150679	3509.484898	-95.161359	0.342537	0.000000	0.429519	-1507.391213	294.675966	1202.129698
0.096208	566.844703	3230.513070	-84.377696	0.350158	0.000000	0.430098	-1389.437706	302.604282	1131.189924
0.097689	583.183639	3020.202359	-74.290789	0.356280	0.000000	0.430539	-1300.314423	303.438302	1076.036511
0.098335	585.033971	2927.282542	-69.621025	0.359045	0.000000	0.430755	-1260.940421	301.851533	1051.026453
0.100377	598.961587	2638.476781	-55.221588	0.368279	0.000000	0.431447	-1138.362904	297.857175	971.696519
0.101858	601.696957	2442.194051	-52.452546	0.374892	0.000000	0.431930	-1054.857117	293.577400	915.558720
0.102504	602.968654	2364.954353	-50.162720	0.377393	0.000000	0.432110	-1021.920262	291.837778	892.517215
0.104546	613.313191	2156.282989	-40.075662	0.383102	0.000000	0.432544	-932.686398	290.260918	826.075702
0.106026	620.879959	2005.180193	-30.284699	0.387104	0.000000	0.432919	-868.079866	288.796400	776.213323
0.106673	623.346834	1936.468299	-25.244501	0.388906	0.000000	0.433100	-838.684264	287.727724	753.103304
0.108715	626.050555	1715.091346	-7.639847	0.395066	0.000000	0.433766	-743.948149	281.292371	677.573438
0.110195	618.665917	1553.119767	4.290021	0.399792	0.000000	0.434285	-674.496718	273.090691	620.925195
0.110842	613.779681	1485.013497	10.267679	0.401857	0.000000	0.434530	-645.283579	268.447842	596.763138
0.112884	589.464790	1291.193033	26.887358	0.407909	0.000000	0.435278	-562.028391	250.476422	526.689636
0.114364	558.177820	1158.683791	35.272017	0.412246	0.000000	0.435852	-505.014879	233.048849	477.663024
0.115011	547.534942	1104.101039	35.280262	0.414135	0.000000	0.436159	-481.564043	227.792171	457.246467
0.117053	524.990084	935.423413	46.085383	0.418554	0.000000	0.436980	-408.761026	211.604578	391.524845
0.118533	491.080999	825.196391	55.365234	0.420420	0.000000	0.437265	-360.829614	192.166969	346.928772
0.119179	475.094122	782.364150	57.981484	0.420795	0.000000	0.437211	-342.058288	183.846063	329.215016
0.121222	422.498555	651.730337	67.186693	0.421317	0.000000	0.436942	-284.768672	156.448592	274.585038
0.122702	383.617564	565.603711	72.909464	0.420622	0.000000	0.436788	-247.048854	136.927300	237.905134
0.123348	364.655853	530.449706	75.856355	0.419864	0.000000	0.436774	-231.686643	127.443445	222.716861
0.125391	303.404181	418.256621	72.368324	0.417014	0.000000	0.436359	-182.510192	102.216413	174.418763
0.126871	249.002234	335.179024	67.877335	0.414331	0.000000	0.435976	-146.129995	80.435433	138.875064
0.127517	221.840418	298.755642	68.291148	0.412987	0.000000	0.435896	-130.226419	68.496050	123.382216
0.129559	134.128006	186.189906	67.342538	0.408398	0.000000	0.435414	-81.069727	30.898696	76.039539
0.131040	74.884764	112.790261	52.791812	0.404882	0.000000	0.434163	-48.969393	11.137765	45.666741
0.131686	54.805379	84.460651	44.523448	0.403521	0.000000	0.433378	-36.603363	5.785291	34.081632
0.133728	9.176048	17.024290	11.986470	0.399483	0.000000	0.429206	-7.306936	-0.849966	6.800907
0.135208	0.832148	2.219970	1.805392	0.397685	0.000000	0.424616	-0.942634	-0.364634	0.882848
0.135855	0.211674	0.778745	0.668804	0.397532	0.000000	0.422221	-0.328802	-0.176498	0.309576
0.137897	-0.000633	0.006023	0.005375	0.400758	0.000000	0.414160	-0.002494	-0.002416	0.002414
0.139377	-0.000033	0.000086	0.000071	0.406903	0.000000	0.409122	-0.000035	-0.000042	0.000035
0.140024	-0.000006	0.000012	0.000009	0.410535	0.000000	0.407423	-0.000005	-0.000006	0.000005
0.142066	-0.000000	0.000000	0.000000	0.425876	0.000000	0.404707	-0.000000	-0.000000	0.000000
0.143546	-0.000000	0.000000	0.000000	0.440240	0.000000	0.405065	-0.000000	-0.000000	0.000000
0.144193	-0.000000	0.000000	0.000000	0.447282	0.000000	0.405672	-0.000000	-0.000000	0.000000
0.146235	-0.000000	0.000000	0.000000	NaN	0.000000	NaN	0.000000	0.000000	0.000000
0.147715	-0.000000	0.000000	0.000000	NaN	0.000000	NaN	0.000000	0.000000	0.000000
0.148361	-0.000000	0.000000	0.000000	NaN	0.000000	NaN	0.000000	0.000000	0.000000
0.150404	-0.000000	0.000000	0.000000	NaN	0.000000	NaN	0.000000	0.000000	0.000000
